<svg width="22" height="22" viewBox="0 0 22 22" fill="none" xmlns="http://www.w3.org/2000/svg">
<g clip-path="url(#clip0)">
<path d="M19.0494 5.90245H2.95186C2.50731 5.90245 2.14697 6.26278 2.14697 6.70734V21.1952C2.14697 21.6397 2.50731 22 2.95186 22H19.0494C19.494 22 19.8543 21.6397 19.8543 21.1952V6.70734C19.8543 6.26274 19.494 5.90245 19.0494 5.90245ZM18.2445 20.3903H3.75675V7.51219H18.2446V20.3903H18.2445Z" fill="#FF665A"/>
<path d="M14.0321 9.57804C13.5876 9.57804 13.2272 9.93837 13.2272 10.3829V11.6171H8.7736V10.3829C8.7736 9.93837 8.41326 9.57804 7.96871 9.57804C7.52415 9.57804 7.16382 9.93837 7.16382 10.3829V11.6171C7.16382 12.5196 7.87104 13.2268 8.77356 13.2268H13.2272C14.1298 13.2268 14.837 12.5196 14.837 11.6171V10.3829C14.837 9.93837 14.4767 9.57804 14.0321 9.57804Z" fill="#FF665A"/>
<path d="M17.7081 2.95129H4.29342C3.84886 2.95129 3.48853 3.31163 3.48853 3.75618C3.48853 4.20074 3.84886 4.56108 4.29342 4.56108H17.708C18.1526 4.56108 18.5129 4.20074 18.5129 3.75618C18.5129 3.31159 18.1526 2.95129 17.7081 2.95129Z" fill="#FF665A"/>
<path d="M16.3664 0H5.63472C5.19017 0 4.82983 0.360336 4.82983 0.804891C4.82983 1.24945 5.19017 1.60978 5.63472 1.60978H16.3664C16.811 1.60978 17.1713 1.24945 17.1713 0.804891C17.1713 0.360336 16.811 0 16.3664 0Z" fill="#FF665A"/>
</g>
<defs>
<clipPath id="clip0">
<rect width="22" height="22" fill="white"/>
</clipPath>
</defs>
</svg>
