<svg width="89" height="28" viewBox="0 0 89 28" fill="none" xmlns="http://www.w3.org/2000/svg">
<g clip-path="url(#clip0)">
<path d="M43.4836 14.7983C43.8414 14.7983 43.9167 15.01 43.8602 15.2987C43.5966 16.4919 40.7906 18.8013 36.8171 18.8013C32.9566 18.8013 30 16.107 30 11.6229C30 5.5607 33.7099 1.5 38.3801 1.5C41.2049 1.5 42.6926 3.36677 42.6926 5.42598C42.6926 7.60067 41.3367 8.77461 39.9432 8.77461C38.8321 8.77461 38.4743 7.98557 38.4743 7.98557C38.4743 7.98557 40.1692 7.29275 40.1692 4.71392C40.1692 3.48224 39.4159 2.77017 38.3237 2.77017C35.7249 2.77017 33.1449 6.61917 33.1449 11.3727C33.1449 14.933 34.9904 16.896 38.0223 16.896C40.4705 16.896 42.4478 15.953 43.4836 14.7983Z" fill="black"/>
<path d="M46.7603 10.5643C48.1915 8.08173 49.7169 7.27344 50.7338 7.27344C51.8449 7.27344 52.5417 7.88928 52.5417 9.08247C52.5417 10.3719 51.7696 11.2956 50.6585 11.2956C50.0747 11.2956 49.6416 11.1609 49.6416 11.1609C49.6416 11.1609 49.9429 10.6221 49.9429 10.0062C49.9429 9.67906 49.811 9.50586 49.4721 9.50586C49.1143 9.50586 48.6058 9.81378 47.8714 10.8723C47.0051 12.1039 46.2707 13.5281 45.7245 16.7805C45.4986 18.1469 45.7245 18.628 45.7245 18.628C45.7245 18.628 45.3856 18.8397 44.557 18.8397C42.8245 18.8397 42.6173 18.1661 42.8809 16.5495L44.0862 9.48661C44.331 8.02399 44.105 7.50438 44.105 7.50438C44.105 7.50438 44.444 7.29268 45.2726 7.29268C47.0051 7.29268 47.2123 8.02399 46.9486 9.58284L46.7603 10.5643Z" fill="black"/>
<path d="M52.7676 13.8167C52.7676 9.7368 55.7996 7.27344 58.8126 7.27344C61.1101 7.27344 62.0329 8.50512 62.0329 9.67906C62.0329 11.7768 59.6601 13.1624 55.6866 13.9322C55.8184 15.6643 57.0048 16.9922 58.9068 16.9922C61.3173 16.9922 62.692 15.7605 63.3134 14.7982C63.6147 14.7982 63.7654 14.9907 63.6712 15.3948C63.4641 16.4148 61.2984 18.8012 57.8522 18.8012C54.9145 18.8012 52.7676 16.9344 52.7676 13.8167ZM55.7242 12.8352C58.4737 12.1617 59.6224 10.7568 59.6224 9.23643C59.6224 8.7553 59.3023 8.42814 58.8315 8.42814C57.5509 8.42814 55.969 9.94849 55.7242 12.8352Z" fill="black"/>
<path d="M64.1044 9.46737C64.3492 7.9855 64.1232 7.48513 64.1232 7.48513C64.1232 7.48513 64.4622 7.27344 65.2908 7.27344C67.0233 7.27344 67.2305 7.94701 66.9668 9.56359L66.0817 14.779C65.8557 16.1646 66.2324 16.819 67.061 16.819C67.8331 16.819 68.85 16.0492 69.4338 14.8175C69.7351 14.8175 69.9234 15.0099 69.8669 15.4141C69.6409 16.6458 68.0214 18.8204 65.8181 18.8204C64.255 18.8204 63.1816 17.7812 63.1816 15.9337C63.1816 15.4718 63.2193 14.6635 63.3888 13.7398L64.1044 9.46737Z" fill="black"/>
<path d="M70.639 9.83309C70.7332 9.46744 70.6202 9.25574 70.413 9.25574C70.3 9.25574 70.1682 9.35197 69.9611 9.52517C69.6598 9.33272 69.5091 8.62066 69.9611 8.255C70.7332 7.63916 71.5429 7.13879 72.4845 7.13879C73.2943 7.13879 73.7651 7.52369 73.5768 8.40896L73.4638 8.96707C74.3489 7.85086 75.4035 7.13879 76.5334 7.13879C78.5295 7.13879 79.3958 8.8516 79.3958 10.9493C79.3958 14.4134 76.9288 18.9745 73.0683 18.9745C72.5222 18.9745 71.9572 18.7628 71.5053 18.3779L69.9422 26.0374C69.7163 27.0959 68.9253 27.5 68.1156 27.5C67.7013 27.5 67.3246 27.3845 67.061 27.1921L70.639 9.83309ZM73.0683 10.9301L71.8254 16.9537C72.2397 17.1847 72.5975 17.2039 72.9553 17.2039C75.2528 17.2039 76.6275 14.067 76.6275 11.7768C76.6275 10.1603 76.0626 9.44819 75.2905 9.44819C74.6125 9.46744 73.8027 9.98705 73.0683 10.9301Z" fill="black"/>
<path d="M89 9.69831C89 12.2386 85.6103 13.3164 82.6537 13.913C82.8797 15.6643 84.0473 16.9729 86.0434 16.9729C87.5876 16.9729 88.1714 16.0107 88.1714 16.0107C88.4351 16.0107 88.5857 16.1454 88.5292 16.4341C88.3786 17.4348 86.8532 18.8012 84.5934 18.8012C81.505 18.8012 79.7159 16.5303 79.7159 13.7975C79.7159 9.65982 82.8609 7.27344 85.6856 7.27344C88.0961 7.27344 89 8.44738 89 9.69831ZM82.6537 12.8352C85.4031 12.1617 86.5895 10.7375 86.5895 9.27492C86.5895 8.65908 86.2317 8.42814 85.7798 8.42814C84.3109 8.42814 82.8797 10.2757 82.6537 12.8352Z" fill="black"/>
<path d="M63.7277 5.06038L64.5375 3.40531C64.594 3.30909 64.6505 3.21286 64.7447 3.13588C64.82 3.0589 64.9706 2.92419 64.9706 2.92419C65.2531 2.69325 66.3454 2.30835 66.8915 2.17363C66.9856 2.15439 67.0986 2.19288 67.1551 2.2891C67.1928 2.36608 67.2305 2.42382 67.2305 2.5008C67.061 3.4438 66.0064 4.30983 63.9161 5.15661C63.8407 5.1951 63.6901 5.13736 63.7277 5.06038Z" fill="#FF1B51" stroke="#FF1B51" stroke-miterlimit="10"/>
</g>
<g clip-path="url(#clip1)">
<path d="M16.5 8.59995V23.7C16.5 23.7 7.00001 24.3 0.600006 20.7V5.69995C0.600006 5.79995 5.00001 8.59995 16.5 8.59995Z" fill="white" stroke="#040000" stroke-width="1.1808" stroke-miterlimit="10" stroke-linecap="round" stroke-linejoin="round"/>
<path d="M16.2 18.8C16.2 18.8 7.1 19.3 1 16.2L16.2 18.8Z" fill="white"/>
<path d="M16.2 18.8C16.2 18.8 7.1 19.3 1 16.2" stroke="#040000" stroke-width="1.2923" stroke-miterlimit="10" stroke-linecap="round" stroke-linejoin="round"/>
<path d="M0.899994 11.1C0.899994 11.1 5.09999 13.8 16.1 13.8L0.899994 11.1Z" fill="white"/>
<path d="M0.899994 11.1C0.899994 11.1 5.09999 13.8 16.1 13.8" stroke="#040000" stroke-width="1.2923" stroke-miterlimit="10" stroke-linecap="round" stroke-linejoin="round"/>
<path d="M16.5 23.7V8.59998L18.9 1.09998V15.9L16.5 23.7Z" fill="#040000" stroke="#040000" stroke-width="1.1808" stroke-miterlimit="10" stroke-linecap="round" stroke-linejoin="round"/>
<path d="M18.9 1.09998L0.600006 5.79998C0.600006 5.79998 5.00001 8.69998 16.5 8.59998L18.9 1.09998Z" fill="#040000" stroke="#080303" stroke-width="1.1808" stroke-miterlimit="10" stroke-linecap="round" stroke-linejoin="round"/>
<path d="M9.99999 5.19993C10.1 5.29993 9.89999 5.39993 9.79999 5.29993C8.19999 4.69993 7.09999 3.99993 6.39999 3.39993L8.69999 2.79993C8.79999 2.89993 8.89999 2.99993 8.99999 3.09993L9.99999 5.19993Z" fill="white" stroke="white" stroke-width="0.5904" stroke-miterlimit="10" stroke-linejoin="round"/>
<path d="M5.60001 1.99998C5.60001 1.89998 5.60001 1.79998 5.70001 1.69998C5.70001 1.59998 5.90001 1.59998 6.00001 1.59998C6.70001 1.79998 8.10001 2.29998 8.40001 2.49998C8.40001 2.49998 8.60001 2.69998 8.70001 2.79998L6.40001 3.39998C6.00001 2.89998 5.70001 2.49998 5.60001 1.99998Z" fill="#FF1B51" stroke="#FF1B51" stroke-width="0.5904" stroke-miterlimit="10"/>
</g>
<defs>
<clipPath id="clip0">
<rect width="59" height="26" fill="white" transform="translate(30 1.5)"/>
</clipPath>
<clipPath id="clip1">
<rect width="19.5" height="23.9" fill="white" transform="translate(0 0.5)"/>
</clipPath>
</defs>
</svg>
