<svg width="22" height="22" viewBox="0 0 22 22" fill="none" xmlns="http://www.w3.org/2000/svg">
<path d="M11.0012 11.6016C14.1998 11.6016 16.802 8.99933 16.802 5.80078C16.802 2.60223 14.1998 0 11.0012 0C7.80267 0 5.20044 2.60223 5.20044 5.80078C5.20044 8.99933 7.80263 11.6016 11.0012 11.6016ZM11.0012 1.71875C13.2521 1.71875 15.0833 3.54995 15.0833 5.80078C15.0833 8.05161 13.2521 9.88281 11.0012 9.88281C8.75039 9.88281 6.91919 8.05161 6.91919 5.80078C6.91919 3.54995 8.75039 1.71875 11.0012 1.71875Z" fill="#FF665A"/>
<path d="M21.7337 16.4087C21.1734 15.3323 19.8979 14.8644 18.7106 15.315C17.8826 15.6292 16.8701 16.0134 15.7682 16.3173C15.8698 15.8279 15.8191 15.3098 15.6159 14.8171C15.3196 14.0989 14.7106 13.5645 13.9451 13.3509C13.5538 13.2418 13.129 13.2172 12.6824 13.2779C9.73788 13.6785 7.98488 12.6828 6.43809 11.8044C5.39838 11.2139 4.41642 10.6562 3.26683 10.6562C1.80589 10.6562 0.603885 11.1252 0.603885 11.1252C0.150908 11.2669 -0.101318 11.749 0.0404356 12.202C0.182189 12.6549 0.664213 12.9073 1.11728 12.7655C1.11728 12.7655 1.97777 12.375 3.26683 12.375C3.96241 12.375 4.68033 12.7827 5.58933 13.2989C6.95041 14.0718 8.73748 15.0869 11.3939 15.0868C11.8715 15.0868 12.3777 15.0539 12.914 14.981C13.1242 14.9524 13.3211 14.9612 13.4833 15.0065C13.6645 15.057 13.9058 15.1789 14.0271 15.4726C14.1211 15.7004 14.1258 15.9136 14.041 16.1062C13.937 16.3425 13.7001 16.5383 13.374 16.6576C12.9033 16.8297 12.2356 16.9214 11.4739 16.9297C10.6569 16.9357 9.85867 16.8415 9.15711 16.6571C8.69808 16.5365 8.22813 16.8109 8.10752 17.2699C7.9869 17.7289 8.26126 18.1989 8.72029 18.3195C9.54181 18.5353 10.5356 18.6485 11.4739 18.6485V18.6478C14.7394 18.6331 17.5385 17.5983 19.3204 16.9219C19.6191 16.8086 20.0296 16.8574 20.2097 17.2035C20.3709 17.5132 20.2522 17.8987 19.9451 18.0628C17.7883 19.215 15.2854 20.2812 11.6076 20.2812C8.3334 20.2812 5.31751 19.0178 3.36407 17.9578C1.85926 17.1414 0.759604 17.3992 0.639205 17.4313L0.640236 17.4352C0.272553 17.5326 0.00116216 17.8667 0.00116216 18.265C0.00116216 18.7397 0.385904 19.1244 0.860537 19.1244C0.938783 19.1244 1.01424 19.113 1.08629 19.0934C1.21254 19.0763 1.75124 19.0382 2.5444 19.4685C4.67277 20.6234 7.97281 22 11.6076 22C16.2227 22 19.2839 20.3646 20.755 19.5787C21.8891 18.9728 22.3285 17.5512 21.7337 16.4087Z" fill="#FF665A"/>
<path d="M13.5589 5.291C13.6196 5.291 13.6662 5.312 13.6989 5.354C13.7362 5.39134 13.7549 5.438 13.7549 5.494C13.7549 5.564 13.7316 5.627 13.6849 5.683C13.6382 5.73434 13.5752 5.76 13.4959 5.76L12.9849 5.753C12.8122 6.215 12.6092 6.68867 12.3759 7.174C12.2126 7.50534 12.0656 7.73167 11.9349 7.853C11.8089 7.97434 11.6782 8.035 11.5429 8.035C11.3282 8.035 11.1719 7.94867 11.0739 7.776C10.9806 7.60334 10.9222 7.307 10.8989 6.887C10.8849 6.691 10.8779 6.49967 10.8779 6.313L10.8849 5.984C10.7262 6.54867 10.5886 6.978 10.4719 7.272C10.3599 7.56134 10.2479 7.762 10.1359 7.874C10.0286 7.98134 9.90024 8.035 9.7509 8.035C9.54557 8.035 9.39857 7.94867 9.3099 7.776C9.22124 7.60334 9.1559 7.307 9.1139 6.887L9.0999 6.726C9.04857 6.01667 9.02524 5.69467 9.0299 5.76L8.5889 5.767C8.52824 5.767 8.48157 5.74834 8.4489 5.711C8.41624 5.67367 8.3999 5.627 8.3999 5.571C8.3999 5.501 8.42324 5.438 8.4699 5.382C8.51657 5.326 8.57724 5.298 8.6519 5.298H9.0089L9.0019 5.011H8.6589C8.59824 5.011 8.55157 4.99234 8.5189 4.955C8.48624 4.91767 8.4699 4.871 8.4699 4.815C8.4699 4.745 8.4909 4.68434 8.5329 4.633C8.57957 4.577 8.64024 4.549 8.7149 4.549H9.0019V4.451C9.00657 4.255 9.04157 4.122 9.1069 4.052C9.1769 3.97734 9.2889 3.94 9.4429 3.94C9.55024 3.94 9.6319 3.97267 9.6879 4.038C9.7439 4.10334 9.7719 4.21534 9.7719 4.374V4.556L10.7379 4.57L10.7939 4.388C10.8452 4.21067 10.9036 4.09167 10.9689 4.031C11.0389 3.97034 11.1229 3.94 11.2209 3.94C11.3282 3.94 11.4099 3.97267 11.4659 4.038C11.5219 4.10334 11.5499 4.21534 11.5499 4.374V4.57L12.6139 4.563L12.6629 4.388C12.7142 4.21534 12.7796 4.09867 12.8589 4.038C12.9382 3.97267 13.0292 3.94 13.1319 3.94C13.3419 3.94 13.4469 4.03567 13.4469 4.227C13.4469 4.30634 13.4282 4.409 13.3909 4.535L13.3839 4.556H13.6219C13.6826 4.556 13.7292 4.577 13.7619 4.619C13.7992 4.65634 13.8179 4.703 13.8179 4.759C13.8179 4.829 13.7946 4.88967 13.7479 4.941C13.7059 4.99234 13.6452 5.018 13.5659 5.018H13.2439L13.1529 5.291H13.5589ZM9.7859 5.298L10.5139 5.305C10.5279 5.263 10.5419 5.21867 10.5559 5.172C10.5746 5.12067 10.5909 5.06467 10.6049 5.004L9.7789 5.011L9.7859 5.298ZM11.5569 5.004V5.305L12.3689 5.298C12.4109 5.19067 12.4436 5.095 12.4669 5.011L11.5569 5.004ZM11.8089 6.726C11.9862 6.31534 12.1192 5.98867 12.2079 5.746H11.5639C11.5826 6.38067 11.6012 6.859 11.6199 7.181L11.8089 6.726ZM10.0729 6.656C10.1989 6.278 10.2969 5.97467 10.3669 5.746L9.8069 5.753C9.81624 5.95834 9.8419 6.37134 9.8839 6.992L9.8979 7.181L10.0729 6.656Z" fill="#FF665A"/>
<path fill-rule="evenodd" clip-rule="evenodd" d="M9.44305 4.04C9.30278 4.04 9.22332 4.07418 9.18 4.12039C9.14193 4.16118 9.10676 4.25982 9.10205 4.4522V4.649H8.71505C8.66939 4.649 8.63724 4.66434 8.61015 4.69667C8.58381 4.72902 8.57005 4.76688 8.57005 4.815C8.57005 4.85011 8.57966 4.87241 8.59431 4.88915C8.60382 4.90002 8.62023 4.911 8.65905 4.911H9.09964L9.11152 5.398H8.65205C8.60623 5.398 8.57401 5.41345 8.54687 5.44601C8.51451 5.48485 8.50005 5.52542 8.50005 5.571C8.50005 5.60611 8.50966 5.62841 8.52431 5.64515C8.53376 5.65595 8.55003 5.66686 8.58835 5.667L9.02846 5.66001L9.02909 5.69965C9.08556 5.70126 9.12848 5.73782 9.12878 5.74005L9.12904 5.74251L9.12916 5.74386L9.12927 5.74532M9.19974 6.71805L9.21362 6.87769C9.25549 7.29606 9.31964 7.57576 9.39901 7.73032C9.4359 7.80217 9.48248 7.85174 9.53744 7.88402C9.59272 7.91649 9.66254 7.935 9.75105 7.935C9.87337 7.935 9.97641 7.89221 10.0653 7.80329C10.162 7.70664 10.2679 7.52233 10.3788 7.2359C10.4935 6.94676 10.6304 6.52058 10.7888 5.95694L10.985 5.98612L10.978 6.31406C10.9781 6.49789 10.985 6.68649 10.9988 6.87987L10.9989 6.88145C11.0221 7.29899 11.0798 7.57562 11.1615 7.72755C11.2401 7.86532 11.3612 7.935 11.543 7.935C11.6456 7.935 11.7527 7.88981 11.8657 7.78096L11.867 7.77971C11.9834 7.6716 12.1238 7.45955 12.2861 7.13024C12.5182 6.64753 12.7199 6.17678 12.8914 5.71799L12.916 5.65204L13.4967 5.66C13.5509 5.65987 13.585 5.64364 13.6097 5.61724C13.641 5.57893 13.655 5.53889 13.655 5.494C13.655 5.46273 13.6457 5.44206 13.6283 5.42471L13.6195 5.41587C13.6086 5.40186 13.5938 5.391 13.559 5.391H13.0143L13.172 4.918H13.566C13.6219 4.918 13.6514 4.90118 13.6707 4.87767L13.674 4.87364C13.7037 4.84089 13.718 4.80437 13.718 4.759C13.718 4.72773 13.7087 4.70706 13.6913 4.68971L13.6825 4.68087C13.6716 4.66686 13.6568 4.656 13.622 4.656H13.2453L13.2956 4.50499C13.3314 4.38381 13.347 4.2922 13.347 4.227C13.347 4.14927 13.3261 4.10863 13.3009 4.08567C13.274 4.0611 13.2238 4.04 13.132 4.04C13.0526 4.04 12.9841 4.06458 12.9226 4.11519L12.9198 4.11748C12.8662 4.15847 12.8086 4.24956 12.7591 4.41575L12.69 4.6625L11.45 4.67066V4.374C11.45 4.22139 11.422 4.14025 11.3901 4.10308C11.3577 4.06523 11.307 4.04 11.221 4.04C11.1463 4.04 11.0863 4.06222 11.0359 4.10539C10.9922 4.14685 10.9403 4.24246 10.8901 4.4158L10.8896 4.41741L10.8116 4.67107L9.67205 4.65456V4.374C9.67205 4.22139 9.64399 4.14025 9.61212 4.10308C9.57968 4.06523 9.52902 4.04 9.44305 4.04M13.5157 4.456H13.622C13.7066 4.456 13.7828 4.48613 13.8371 4.55267C13.8915 4.60928 13.918 4.6803 13.918 4.759C13.918 4.85277 13.8862 4.93682 13.8237 5.00637C13.7591 5.08408 13.668 5.118 13.566 5.118H13.3161L13.2918 5.191H13.559C13.6436 5.191 13.7198 5.22113 13.7741 5.28766C13.8285 5.34428 13.855 5.4153 13.855 5.494C13.855 5.58842 13.8228 5.67385 13.7619 5.74701L13.7591 5.75033C13.6907 5.82559 13.5991 5.86 13.496 5.86H13.4947L13.0539 5.85395C12.8856 6.29808 12.6896 6.75255 12.4662 7.21733C12.3022 7.54991 12.1484 7.79102 12.0038 7.92565C11.865 8.05909 11.7109 8.135 11.543 8.135C11.296 8.135 11.1045 8.03231 10.9871 7.82536L10.9861 7.82356C10.8815 7.63008 10.8227 7.31458 10.7992 6.89333C10.7939 6.81858 10.7896 6.74447 10.7863 6.671C10.7061 6.92642 10.6324 7.13903 10.5652 7.30847C10.4521 7.60052 10.3341 7.81741 10.2068 7.94471C10.081 8.07045 9.92739 8.135 9.75105 8.135C9.63422 8.135 9.52788 8.11034 9.43616 8.05648C9.34412 8.00242 9.27286 7.92249 9.22109 7.82168C9.12317 7.63098 9.05667 7.31822 9.01455 6.89695L9.01442 6.89566L9.0003 6.73322L8.93718 5.86148L8.59064 5.86698L8.58905 5.867C8.50654 5.867 8.42961 5.84064 8.37379 5.77685C8.32311 5.71892 8.30005 5.64788 8.30005 5.571C8.30005 5.47657 8.33226 5.39114 8.39323 5.31798C8.45942 5.23855 8.54854 5.198 8.65205 5.198H8.90658L8.90446 5.111H8.65905C8.57654 5.111 8.49961 5.08464 8.44379 5.02085C8.39311 4.96292 8.37005 4.89188 8.37005 4.815C8.37005 4.72329 8.39818 4.63991 8.45565 4.56967C8.52185 4.49024 8.61154 4.449 8.71505 4.449H8.90205C8.90678 4.25015 8.94143 4.08289 9.03394 3.98376C9.13062 3.88064 9.27531 3.84 9.44305 3.84C9.57175 3.84 9.68441 3.8801 9.76397 3.97292C9.84411 4.06641 9.87205 4.20927 9.87205 4.374V4.45744L10.6645 4.46892L10.6982 4.35938C10.7502 4.18002 10.8145 4.03808 10.901 3.95772L10.9035 3.95538C10.9928 3.87799 11.1005 3.84 11.221 3.84C11.3497 3.84 11.4624 3.8801 11.542 3.97292C11.6221 4.06641 11.65 4.20927 11.65 4.374V4.46934L12.5381 4.46349L12.5672 4.3595C12.6201 4.18165 12.6926 4.04016 12.7968 3.95968C12.8938 3.88036 13.0068 3.84 13.132 3.84C13.2503 3.84 13.3576 3.86673 13.4356 3.93783C13.5154 4.01053 13.547 4.11339 13.547 4.227C13.547 4.29351 13.536 4.37024 13.5157 4.456ZM10.731 4.90293L10.7025 5.02648C10.6879 5.08953 10.6708 5.14857 10.651 5.20343C10.637 5.24999 10.623 5.29439 10.6089 5.33662L10.5859 5.40569L9.68844 5.39706L9.6766 4.91186L10.731 4.90293ZM11.457 4.90322L12.5983 4.912L12.5634 5.03776C12.5389 5.12589 12.505 5.22488 12.4622 5.33444L12.4375 5.39741L11.457 5.40586V4.90322ZM11.657 5.10477V5.20413L12.3 5.19859C12.3114 5.16784 12.322 5.1383 12.3316 5.10996L11.657 5.10477ZM9.8815 5.11013L9.88366 5.19893L10.4415 5.20429C10.4478 5.18445 10.454 5.16411 10.4603 5.14326L10.4619 5.13777C10.4658 5.12712 10.4697 5.11628 10.4734 5.10512L9.8815 5.11013ZM10.5028 5.64429L10.4627 5.77527C10.3923 6.00507 10.294 6.30928 10.1679 6.68762L9.99292 7.21262L9.79832 7.18838L9.78432 6.99938C9.74234 6.37891 9.71654 5.96416 9.70715 5.75754L9.70246 5.6543L10.5028 5.64429ZM11.4611 5.646H12.3511L12.302 5.78032C12.2124 6.02548 12.0786 6.35395 11.9011 6.76501C11.901 6.76522 11.9012 6.7648 11.9011 6.76501L11.7124 7.21936L11.5202 7.18678C11.5015 6.86332 11.4828 6.38383 11.4641 5.74894L11.4611 5.646ZM11.6671 5.846C11.6775 6.19021 11.6879 6.48551 11.6983 6.73203L11.7172 6.68635C11.8632 6.34838 11.9786 6.0684 12.0638 5.846H11.6671ZM9.91208 5.85169C9.92155 6.03021 9.93843 6.30308 9.96275 6.67065L9.97818 6.62437C10.0813 6.3151 10.1655 6.05627 10.2308 5.84771L9.91208 5.85169Z" fill="#FF665A"/>
</svg>
