<svg width="24" height="23" viewBox="0 0 24 23" fill="none" xmlns="http://www.w3.org/2000/svg">
<path d="M2.6499 12V21.9H9.2499C9.2499 21.9 9.2499 16.95 9.2499 16.4C9.2499 15.85 10.8432 15.3 11.9999 15.3C13.1566 15.3 14.707 15.85 14.7499 16.4C14.7928 16.95 14.7499 21.9 14.7499 21.9H21.3499V12" stroke="#FF665A" stroke-width="1.6" stroke-linecap="round" stroke-linejoin="round"/>
<path d="M12 1H6.92305L6.28003 8C6.28003 9.33333 6.6692 12 9.03843 12C11.4077 12 12 9.33333 12 8V1Z" stroke="#FF665A" stroke-width="1.6"/>
<path d="M1.12439 7.66397L3.108 2.30567C3.3985 1.52093 4.14683 1 4.98361 1H6.92307L6.18269 8C6.18269 9.33333 5.66442 12 3.59135 12C1.69039 12 1.09678 9.75776 1.01131 8.35739C0.996874 8.12084 1.04212 7.88622 1.12439 7.66397Z" stroke="#FF665A" stroke-width="1.6" stroke-linecap="round" stroke-linejoin="round"/>
<path d="M12 1H17.077L17.72 8C17.72 9.33333 17.3308 12 14.9616 12C12.5923 12 12 9.33333 12 8V1Z" stroke="#FF665A" stroke-width="1.6"/>
<path d="M22.8756 7.66397L20.892 2.30567C20.6015 1.52093 19.8532 1 19.0164 1H17.0769L17.8173 8C17.8173 9.33333 18.3356 12 20.4087 12C22.3096 12 22.9032 9.75776 22.9887 8.35739C23.0031 8.12084 22.9579 7.88622 22.8756 7.66397Z" stroke="#FF665A" stroke-width="1.6" stroke-linecap="round" stroke-linejoin="round"/>
</svg>
