<svg width="24" height="28" viewBox="0 0 24 28" fill="none" xmlns="http://www.w3.org/2000/svg">
<path d="M3.18428 19.0005L3.58428 18.3077L2.38782 18.9253L3.18428 19.0005ZM6.64531 20.9987L7.10862 21.6509L7.04531 20.3059L6.64531 20.9987ZM2.79511 23.1255L3.59158 23.2006L2.79511 23.1255ZM3.59158 23.2006L3.98075 19.0756L2.38782 18.9253L1.99865 23.0504L3.59158 23.2006ZM2.78428 19.6933L6.24531 21.6915L7.04531 20.3059L3.58428 18.3077L2.78428 19.6933ZM6.18201 20.3465L2.80422 22.7461L3.73083 24.0504L7.10862 21.6509L6.18201 20.3465ZM1.99865 23.0504C1.91023 23.9876 2.96338 24.5956 3.73083 24.0504L2.80422 22.7461C3.15306 22.4982 3.63177 22.7746 3.59158 23.2006L1.99865 23.0504Z" fill="#FF665A"/>
<path d="M3.18311 19.0004L2.49029 18.6004C2.26937 18.9831 2.40047 19.4723 2.78311 19.6932L3.18311 19.0004ZM11.5227 4.55582L11.9227 3.863L11.2299 3.463L10.8299 4.15582L11.5227 4.55582ZM14.9837 6.55405L15.6766 6.95405L16.0766 6.26123L15.3837 5.86123L14.9837 6.55405ZM6.64414 20.9987L6.24414 21.6915C6.62677 21.9124 7.11604 21.7813 7.33696 21.3987L6.64414 20.9987ZM3.87593 19.4004L12.2155 4.95582L10.8299 4.15582L2.49029 18.6004L3.87593 19.4004ZM11.1227 5.24864L14.5837 7.24687L15.3837 5.86123L11.9227 3.863L11.1227 5.24864ZM14.2909 6.15405L5.95132 20.5987L7.33696 21.3987L15.6766 6.95405L14.2909 6.15405ZM7.04414 20.3058L3.58311 18.3076L2.78311 19.6932L6.24414 21.6915L7.04414 20.3058Z" fill="#FF665A"/>
<path d="M11.5276 4.54261L10.8348 4.14261L10.4348 4.83543L11.1276 5.23543L11.5276 4.54261ZM12.9956 1.99996L13.3956 1.30714C13.013 1.08623 12.5237 1.21733 12.3028 1.59996L12.9956 1.99996ZM16.4566 3.99819L17.1494 4.39819C17.3704 4.01556 17.2393 3.52629 16.8566 3.30537L16.4566 3.99819ZM14.9886 6.54084L14.5886 7.23366L15.2814 7.63366L15.6814 6.94084L14.9886 6.54084ZM12.2204 4.94261L13.6884 2.39996L12.3028 1.59996L10.8348 4.14261L12.2204 4.94261ZM12.5956 2.69279L16.0566 4.69101L16.8566 3.30537L13.3956 1.30714L12.5956 2.69279ZM15.7638 3.59819L14.2958 6.14084L15.6814 6.94084L17.1494 4.39819L15.7638 3.59819ZM15.3886 5.84802L11.9276 3.84979L11.1276 5.23543L14.5886 7.23366L15.3886 5.84802Z" fill="#FF665A"/>
<path d="M7 24.5C8 25 9.92142 25.8774 13.8514 25.1324C18.764 24.2012 12.8946 22.7693 16.8246 22.0243C19.9686 21.4284 21.9234 22.0756 22.5077 22.4738" stroke="#FF665A" stroke-width="1.6" stroke-linecap="round" stroke-linejoin="round"/>
</svg>
